<?xml version="1.0" encoding="UTF-8"?>
<svg version="1.1" xmlns="http://www.w3.org/2000/svg" width="128" height="128">
<path d="M0 0 C2.23828125 1.4921875 2.23828125 1.4921875 3.78125 3.5703125 C4.49131436 8.10986928 2.5678427 11.23509389 0.55078125 15.2421875 C0.18533203 16.02207031 -0.18011719 16.80195312 -0.55664062 17.60546875 C-2.61461175 21.83921973 -2.61461175 21.83921973 -3.76171875 23.4921875 C-5.24671875 23.9871875 -5.24671875 23.9871875 -6.76171875 24.4921875 C-7.25671875 23.5021875 -7.25671875 23.5021875 -7.76171875 22.4921875 C-7.59671875 23.6678125 -7.43171875 24.8434375 -7.26171875 26.0546875 C-7.16465726 33.62548359 -12.0364212 40.1808017 -15.76171875 46.4921875 C-18.67191921 43.67819201 -20.79024348 41.04084299 -22.76171875 37.4921875 C-22.60445313 38.32105469 -22.4471875 39.14992187 -22.28515625 40.00390625 C-20.87003568 49.4345232 -20.16471461 58.89220356 -25.66796875 67.0859375 C-26.02890625 67.55 -26.38984375 68.0140625 -26.76171875 68.4921875 C-30.05006492 65.70176125 -31.88907564 62.01890574 -33.94921875 58.3046875 C-34.31724609 57.65048828 -34.68527344 56.99628906 -35.06445312 56.32226562 C-35.96796535 54.71471789 -36.86544285 53.10378099 -37.76171875 51.4921875 C-37.54515625 52.68972656 -37.32859375 53.88726562 -37.10546875 55.12109375 C-32.35769772 82.37858726 -32.35769772 82.37858726 -37.13671875 90.3671875 C-38.6430638 92.40207467 -39.48798366 93.35531996 -41.76171875 94.4921875 C-52.44300499 96.00880015 -62.01572113 91.67536074 -70.63671875 85.6796875 C-81.02441006 77.5836204 -89.22299158 66.26327766 -91.1328125 52.89453125 C-91.15472656 52.08113281 -91.17664063 51.26773438 -91.19921875 50.4296875 C-91.23917969 49.61371094 -91.27914062 48.79773438 -91.3203125 47.95703125 C-90.48615867 44.27625457 -88.63473538 42.88124679 -85.76171875 40.4921875 C-83.43901442 39.05068239 -81.04348524 37.84852524 -78.57421875 36.6796875 C-77.6315918 36.21272461 -77.6315918 36.21272461 -76.66992188 35.73632812 C-72.0583362 33.4921875 -72.0583362 33.4921875 -69.76171875 33.4921875 C-69.51421875 32.7703125 -69.26671875 32.0484375 -69.01171875 31.3046875 C-67.2410119 27.32059709 -65.51498695 24.23040569 -61.38671875 22.4921875 C-56.767085 22.4921875 -53.50309607 24.99793595 -49.76171875 27.4921875 C-49.98730469 26.93015625 -50.21289062 26.368125 -50.4453125 25.7890625 C-50.89436642 22.52926367 -49.76421362 21.3401675 -47.82421875 18.7421875 C-44.53279187 14.71052003 -44.53279187 14.71052003 -41.58203125 13.875 C-38.72218578 13.86452438 -36.33053063 14.20778156 -33.76171875 15.4921875 C-33.35179687 14.93789063 -32.941875 14.38359375 -32.51953125 13.8125 C-31.98070312 13.08804688 -31.441875 12.36359375 -30.88671875 11.6171875 C-30.35304687 10.89789063 -29.819375 10.17859375 -29.26953125 9.4375 C-27.76171875 7.4921875 -27.76171875 7.4921875 -25.76171875 5.4921875 C-23.8359375 5.5078125 -23.8359375 5.5078125 -21.44921875 5.7421875 C-15.33100946 5.93782791 -11.01459542 3.49924536 -5.7421875 0.609375 C-2.76171875 -0.5078125 -2.76171875 -0.5078125 0 0 Z " fill="#FFFFFF" transform="translate(92.76171875,24.5078125)"/>
<path d="M0 0 C2.85475306 -0.08156437 5.70713565 -0.14076372 8.5625 -0.1875 C9.36236328 -0.21263672 10.16222656 -0.23777344 10.98632812 -0.26367188 C17.76643331 -0.34669357 22.38209623 0.85807873 27.75 5.25 C32.4988227 11.05411664 33.55846436 16.4601774 33.5 23.75 C33.49572998 24.57056885 33.49145996 25.3911377 33.48706055 26.23657227 C33.12241096 39.76983953 28.71078483 52.82509276 23 65 C21.46968642 61.02726542 22.55121683 57.49653745 23.4375 53.5 C24.86681882 46.59492516 25.36140244 40.06742543 25 33 C24.6596875 33.8971875 24.319375 34.794375 23.96875 35.71875 C15.13596598 58.62926934 2.50193755 79.55520568 -11 100 C-12 97 -12 97 -10.62890625 93.8046875 C-9.94857323 92.49037308 -9.25907245 91.18078031 -8.5625 89.875 C-7.81129654 88.41077305 -7.06133221 86.94590982 -6.3125 85.48046875 C-5.2017483 83.32699889 -4.09004466 81.17403193 -2.9765625 79.02197266 C1.81338977 69.66001094 5.52309444 60.09405865 8.875 50.125 C9.25648193 48.99602295 9.63796387 47.8670459 10.03100586 46.70385742 C14.00210287 34.56206541 18.06085106 20.39908509 13 8 C9.83698387 3.44525678 5.1092421 2.44106829 0 1 C0 0.67 0 0.34 0 0 Z " fill="#FFFFFF" transform="translate(93,9)"/>
<path d="" fill="#FFFFFF" transform="translate(0,0)"/>
<path d="" fill="#FFFFFF" transform="translate(0,0)"/>
</svg>
